<svg id='Checkmark_24' width='24' height='24' viewBox='0 0 24 24' xmlns='http://www.w3.org/2000/svg'
	xmlns:xlink='http://www.w3.org/1999/xlink'>
	<rect width='24' height='24' stroke='none' fill='#000000' opacity='0' />
	<g transform="matrix(0.8 0 0 0.8 12 12)">
		<path
			style="stroke: none; stroke-width: 1; stroke-dasharray: none; stroke-linecap: butt; stroke-dashoffset: 0; stroke-linejoin: miter; stroke-miterlimit: 4; fill: rgb(0,0,0); fill-rule: nonzero; opacity: 1;"
			transform=" translate(-15.5, -14.99)"
			d="M 26.980469 5.9902344 C 26.72067037618049 5.997975535874743 26.474090604386607 6.1065547057164276 26.292969 6.2929688 L 11 21.585938 L 4.7070312 15.292969 C 4.456213996960413 15.031731108787557 4.083765014831265 14.926498480827085 3.733324758830065 15.017855648687846 C 3.3828845028288645 15.109212816548606 3.109212991113946 15.382884250849257 3.017855724123107 15.733324481007967 C 2.9264984571322685 16.08376471116668 3.031730979736979 16.45621372306328 3.2929687999999997 16.707031 L 10.292969 23.707031 C 10.683498808445279 24.097399062146913 11.316501191554721 24.097399062146913 11.707031 23.707031 L 27.707031 7.7070312 C 28.00279138203425 7.419539844341691 28.091719755203744 6.97996529943312 27.930965587636003 6.60011851351951 C 27.770211420068257 6.220271727605899 27.392752465942692 5.978075992638116 26.980469 5.9902344 z"
			stroke-linecap="round" />
	</g>
</svg>