<svg id='Dice_Six_24' width='24' height='24' viewBox='0 0 24 24' xmlns='http://www.w3.org/2000/svg'
	xmlns:xlink='http://www.w3.org/1999/xlink'>
	<rect width='24' height='24' stroke='none' fill='#000000' opacity='0' />
	<g transform="matrix(0.91 0 0 0.91 12 12)">
		<path
			style="stroke: none; stroke-width: 1; stroke-dasharray: none; stroke-linecap: butt; stroke-dashoffset: 0; stroke-linejoin: miter; stroke-miterlimit: 4; fill: rgb(0,0,0); fill-rule: nonzero; opacity: 1;"
			transform=" translate(-16, -16)"
			d="M 5 5 L 5 27 L 27 27 L 27 5 L 5 5 z M 7 7 L 25 7 L 25 25 L 7 25 L 7 7 z M 11 8 C 9.895430500338414 8 9 8.895430500338414 9 10 C 9 11.104569499661586 9.895430500338414 12 11 12 C 12.104569499661586 12 13 11.104569499661586 13 10 C 13 8.895430500338414 12.104569499661586 8 11 8 z M 21 8 C 19.895430500338414 8 19 8.895430500338414 19 10 C 19 11.104569499661586 19.895430500338414 12 21 12 C 22.104569499661586 12 23 11.104569499661586 23 10 C 23 8.895430500338414 22.104569499661586 8 21 8 z M 11 14 C 9.895430500338414 14 9 14.895430500338414 9 16 C 9 17.104569499661586 9.895430500338414 18 11 18 C 12.104569499661586 18 13 17.104569499661586 13 16 C 13 14.895430500338414 12.104569499661586 14 11 14 z M 21 14 C 19.895430500338414 14 19 14.895430500338414 19 16 C 19 17.104569499661586 19.895430500338414 18 21 18 C 22.104569499661586 18 23 17.104569499661586 23 16 C 23 14.895430500338414 22.104569499661586 14 21 14 z M 11 20 C 9.895430500338414 20 9 20.895430500338414 9 22 C 9 23.104569499661586 9.895430500338414 24 11 24 C 12.104569499661586 24 13 23.104569499661586 13 22 C 13 20.895430500338414 12.104569499661586 20 11 20 z M 21 20 C 19.895430500338414 20 19 20.895430500338414 19 22 C 19 23.104569499661586 19.895430500338414 24 21 24 C 22.104569499661586 24 23 23.104569499661586 23 22 C 23 20.895430500338414 22.104569499661586 20 21 20 z"
			stroke-linecap="round" />
	</g>
</svg>