<svg id='In_Progress_24' width='24' height='24' viewBox='0 0 24 24'
	xmlns='http://www.w3.org/2000/svg' xmlns:xlink='http://www.w3.org/1999/xlink'>
	<rect width='24' height='24' stroke='none' fill='#000000' opacity='0' />
	<g transform="matrix(0.77 0 0 0.77 12 12)">
		<path
			style="stroke: none; stroke-width: 1; stroke-dasharray: none; stroke-linecap: butt; stroke-dashoffset: 0; stroke-linejoin: miter; stroke-miterlimit: 4; fill: rgb(0,0,0); fill-rule: nonzero; opacity: 1;"
			transform=" translate(-16.04, -16)"
			d="M 16 3 C 15.539063 3 15.0625 3.027344 14.546875 3.085938 L 14.765625 5.070313 C 15.210938 5.023438 15.613281 5 16 5 C 22.066406 5 27 9.933594 27 16 C 27 22.066406 22.066406 27 16 27 C 15.613281 27 15.214844 26.976563 14.777344 26.925781 L 14.554688 28.914063 C 15.066406 28.972656 15.539063 29 16 29 C 23.167969 29 29 23.167969 29 16 C 29 8.832031 23.167969 3 16 3 Z M 11.707031 3.738281 C 10.789063 4.058594 9.910156 4.488281 9.085938 5.003906 L 10.152344 6.695313 C 10.847656 6.257813 11.59375 5.898438 12.371094 5.625 Z M 6.804688 6.808594 C 6.144531 7.472656 5.535156 8.242188 5 9.09375 L 6.695313 10.15625 C 7.148438 9.429688 7.664063 8.78125 8.21875 8.222656 Z M 21.25 11.34375 L 14.875 18.621094 L 10.625 15.21875 L 9.375 16.78125 L 15.125 21.378906 L 22.75 12.65625 Z M 3.734375 11.714844 C 3.410156 12.652344 3.191406 13.605469 3.085938 14.550781 L 5.070313 14.769531 C 5.160156 13.976563 5.347656 13.167969 5.625 12.375 Z M 5.074219 17.234375 L 3.085938 17.457031 C 3.195313 18.40625 3.414063 19.359375 3.742188 20.296875 L 5.628906 19.632813 C 5.351563 18.839844 5.164063 18.035156 5.074219 17.234375 Z M 6.695313 21.851563 L 5.007813 22.917969 C 5.542969 23.765625 6.148438 24.535156 6.8125 25.199219 L 8.226563 23.78125 C 7.667969 23.222656 7.152344 22.574219 6.695313 21.851563 Z M 10.160156 25.3125 L 9.09375 27 C 9.917969 27.519531 10.796875 27.941406 11.71875 28.265625 L 12.375 26.375 C 11.597656 26.105469 10.851563 25.746094 10.160156 25.3125 Z"
			stroke-linecap="round" />
	</g>
</svg>